<svg width="32" height="32" viewBox="0 0 32 32" fill="none" xmlns="http://www.w3.org/2000/svg">
<path fill-rule="evenodd" clip-rule="evenodd" d="M16 2.66675C11.5817 2.66675 7.99996 6.24847 7.99996 10.6667V13.1081C7.99996 13.7789 7.99996 14.1143 7.97278 14.4432C7.89006 15.444 7.61963 16.4204 7.17563 17.3212C7.02973 17.6172 6.85717 17.9048 6.51205 18.48L5.77416 19.7098C5.00862 20.9858 4.62585 21.6237 4.87238 22.1151C4.88739 22.1451 4.9039 22.1742 4.92184 22.2025C5.21641 22.6667 5.96039 22.6667 7.44835 22.6667H24.5516C26.0396 22.6667 26.7836 22.6667 27.0781 22.2025C27.0961 22.1742 27.1126 22.1451 27.1276 22.1151C27.3741 21.6237 26.9914 20.9857 26.2258 19.7098L25.4879 18.48C25.1428 17.9048 24.9702 17.6172 24.8243 17.3212C24.3803 16.4204 24.1099 15.444 24.0271 14.4431C24 14.1142 24 13.7788 24 13.108V12.3004C24 12.1346 24 12.0517 23.9511 12.0071C23.9023 11.9625 23.8139 11.9705 23.637 11.9864C23.537 11.9955 23.4357 12.0001 23.3333 12.0001C21.4924 12.0001 20 10.5077 20 8.66675C20 7.39195 20.7156 6.2843 21.7671 5.72358C21.9453 5.62851 22.0345 5.58098 22.0467 5.50826C22.059 5.43554 21.9967 5.36829 21.8722 5.23377C20.4109 3.65505 18.3208 2.66675 16 2.66675Z" fill="#FFCC00"/>
<circle cx="23.3334" cy="8.66675" r="2" fill="#FF3B30"/>
<path d="M19.1834 24.0001C19.2662 24.0001 19.3339 24.0673 19.3281 24.15C19.2822 24.8026 18.9379 25.421 18.3571 25.8857C17.7319 26.3858 16.8841 26.6667 16 26.6667C15.116 26.6667 14.2681 26.3858 13.643 25.8857C13.0622 25.421 12.7179 24.8026 12.672 24.15C12.6662 24.0673 12.7339 24.0001 12.8167 24.0001L16 24.0001L19.1834 24.0001Z" fill="#FF3B30"/>
</svg>
