<svg width="36" height="36" viewBox="0 0 36 36" fill="none" xmlns="http://www.w3.org/2000/svg">
<path d="M7.5 20.0585C7.5 19.0494 7.5 18.5448 7.72166 18.1141C7.94333 17.6833 8.3539 17.3901 9.17505 16.8035L16.8375 11.3303C17.3989 10.9294 17.6795 10.7289 18 10.7289C18.3205 10.7289 18.6011 10.9294 19.1625 11.3303L26.825 16.8035C27.6461 17.3901 28.0567 17.6833 28.2783 18.1141C28.5 18.5448 28.5 19.0494 28.5 20.0585V29.5C28.5 30.4428 28.5 30.9142 28.2071 31.2071C27.9142 31.5 27.4428 31.5 26.5 31.5H9.5C8.55719 31.5 8.08579 31.5 7.79289 31.2071C7.5 30.9142 7.5 30.4428 7.5 29.5V20.0585Z" fill="#FFCC00"/>
<path d="M4.5 18.8866C4.5 19.1535 4.5 19.2869 4.5841 19.3281C4.66819 19.3692 4.77352 19.2873 4.98418 19.1234L16.7721 9.95502C17.362 9.49625 17.6569 9.26686 18 9.26686C18.3431 9.26686 18.638 9.49625 19.2279 9.95502L31.0158 19.1234C31.2265 19.2873 31.3318 19.3692 31.4159 19.3281C31.5 19.2869 31.5 19.1535 31.5 18.8866V17.4782C31.5 16.9978 31.5 16.7576 31.3983 16.5497C31.2966 16.3418 31.107 16.1944 30.7279 15.8995L19.2279 6.95502C18.638 6.49625 18.3431 6.26686 18 6.26686C17.6569 6.26686 17.362 6.49625 16.7721 6.95502L5.27212 15.8995C4.89295 16.1944 4.70337 16.3418 4.60168 16.5497C4.5 16.7576 4.5 16.9978 4.5 17.4782V18.8866Z" fill="#FF9500"/>
<path d="M19.75 22.5H16.25C15.1454 22.5 14.25 23.3954 14.25 24.5V31.35C14.25 31.4328 14.3172 31.5 14.4 31.5H21.6C21.6828 31.5 21.75 31.4328 21.75 31.35V24.5C21.75 23.3954 20.8546 22.5 19.75 22.5Z" fill="#FF9500"/>
<rect x="24" y="7.5" width="3" height="6" rx="0.5" fill="#FF9500"/>
</svg>
